<svg width="240" height="143" viewBox="0 0 240 143" fill="none" xmlns="http://www.w3.org/2000/svg">
<path d="M0.0300293 95.31V142.96H47.69V47.65C35.0498 47.65 22.9273 52.6713 13.9893 61.6093C5.05134 70.5473 0.0300293 82.6698 0.0300293 95.31Z" fill="#25D366"/>
<path d="M143 95.3099V142.96H95.34C89.0817 142.961 82.8844 141.73 77.1021 139.336C71.3198 136.942 66.0657 133.432 61.64 129.007C57.2142 124.582 53.7034 119.329 51.3082 113.547C48.9129 107.765 47.6801 101.568 47.6801 95.3099H143Z" fill="#25D366"/>
<path d="M143 47.6V0H0V47.65H95.31V95.31C107.95 95.31 120.073 90.2887 129.011 81.3507C137.949 72.4127 142.97 60.2902 142.97 47.65L143 47.6Z" fill="#25D366"/>
<g clip-path="url(#clip0_402_7)">
<path fill-rule="evenodd" clip-rule="evenodd" d="M229.219 55.7536C222.264 48.8221 213.011 45.0034 203.154 45C182.845 45 166.315 61.4475 166.308 81.6659C166.305 88.1303 168.004 94.4379 171.228 99.9988L166 119L185.531 113.903C190.913 116.825 196.974 118.362 203.137 118.366H203.154C223.46 118.366 239.993 101.915 240 81.6966C240.003 71.8976 236.177 62.6851 229.219 55.757V55.7536ZM203.158 112.171H203.144C197.649 112.171 192.26 110.698 187.556 107.923L186.439 107.261L174.849 110.285L177.943 99.0373L177.216 97.8849C174.15 93.0332 172.53 87.4245 172.533 81.6659C172.54 64.8638 186.278 51.1917 203.171 51.1917C211.352 51.1951 219.04 54.3693 224.823 60.1314C230.606 65.8901 233.789 73.5512 233.785 81.6931C233.779 98.4986 220.041 112.171 203.161 112.171H203.158ZM219.955 89.3441C219.033 88.8838 214.508 86.671 213.665 86.3642C212.822 86.0573 212.209 85.9039 211.596 86.8245C210.982 87.7416 209.218 89.8078 208.68 90.4181C208.142 91.0284 207.604 91.1068 206.686 90.6465C205.765 90.1862 202.801 89.2213 199.283 86.0982C196.546 83.6673 194.699 80.6703 194.161 79.7497C193.623 78.8326 194.103 78.3348 194.565 77.8813C194.98 77.4688 195.487 76.8107 195.946 76.2754C196.409 75.7401 196.559 75.3583 196.868 74.748C197.176 74.1377 197.022 73.6024 196.792 73.1421C196.563 72.6818 194.723 68.1744 193.952 66.3401C193.205 64.5535 192.445 64.7956 191.883 64.7649C191.345 64.7377 190.732 64.7342 190.119 64.7342C189.505 64.7342 188.508 64.9627 187.662 65.8798C186.819 66.797 184.438 69.0132 184.438 73.524C184.438 78.0347 187.738 82.3921 188.197 83.0024C188.659 83.6127 194.689 92.8695 203.925 96.8382C206.121 97.7826 207.837 98.3452 209.174 98.768C211.38 99.4669 213.384 99.368 214.97 99.1328C216.738 98.8703 220.417 96.9166 221.185 94.7754C221.952 92.6343 221.952 90.7999 221.723 90.4181C221.493 90.0362 220.88 89.8078 219.958 89.3475L219.955 89.3441Z" fill="#25D366"/>
</g>
<defs>
<clipPath id="clip0_402_7">
<rect width="74" height="74" fill="white" transform="translate(166 45)"/>
</clipPath>
</defs>
</svg>
